<svg width="28" height="28" viewBox="0 0 28 28" fill="none" xmlns="http://www.w3.org/2000/svg">
<path d="M14 7.61592V3.49992C14 3.1905 14.1229 2.89375 14.3417 2.67496C14.5605 2.45617 14.8572 2.33325 15.1667 2.33325" stroke="#C9961A" stroke-width="1.5" stroke-linecap="round" stroke-linejoin="round"/>
<path d="M21.2764 24.5C24.1222 21.2818 25.6848 17.1293 25.6666 12.8333C25.6666 11.4821 25.2754 10.1597 24.5404 9.02579C23.8054 7.89191 22.7578 6.99502 21.5243 6.44337C20.2907 5.89173 18.9239 5.70891 17.5887 5.91699C16.2535 6.12507 15.0071 6.71515 13.9999 7.61601C12.9928 6.71515 11.7464 6.12507 10.4112 5.91699C9.07602 5.70891 7.70917 5.89173 6.47561 6.44337C5.24206 6.99502 4.19454 7.89191 3.4595 9.02579C2.72445 10.1597 2.33331 11.4821 2.33328 12.8333C2.32592 17.1273 3.88712 21.2761 6.72344 24.5C7.24577 25.0844 7.94911 25.4765 8.72079 25.6135C9.49247 25.7506 10.2878 25.6247 10.9794 25.256C11.909 24.7601 12.9464 24.5006 13.9999 24.5006C15.0535 24.5006 16.0909 24.7601 17.0204 25.256C17.7121 25.6247 18.5074 25.7506 19.2791 25.6135C20.0508 25.4765 20.7541 25.0844 21.2764 24.5Z" stroke="#C9961A" stroke-width="1.5" stroke-linecap="round" stroke-linejoin="round"/>
</svg>
