<svg width="30" height="31" viewBox="0 0 30 31" fill="none" xmlns="http://www.w3.org/2000/svg">
<path d="M3.84652 25.0136H4.51452C4.38546 25.2392 4.30552 25.4945 4.30552 25.7702V29.3655C4.30552 30.2329 5.03408 30.9387 5.92971 30.9387H26.257C28.2998 30.9387 29.8588 29.2632 29.7254 27.3338C29.6048 25.5747 28.0358 24.1967 26.1534 24.1967H25.4854C25.6145 23.9712 25.6944 23.7158 25.6944 23.4402V19.8449C25.6944 18.9773 24.9658 18.2714 24.0702 18.2714H19.1714C21.2206 16.48 22.5801 12.1979 22.5801 10.1125C22.5801 5.85586 17.5263 3.46129 14.0497 6.0332C14.2492 3.95802 16.0293 2.47081 18.0616 2.47081C18.0637 2.47063 18.0677 2.47081 18.0677 2.47081C18.3003 2.47081 18.489 2.28826 18.4893 2.06303C18.4896 1.83519 18.2874 1.65494 18.0618 1.65397C16.5382 1.65397 14.9768 2.38314 14.0486 3.70009C12.9471 1.10947 10.0508 -0.424906 7.1364 0.201148C7.03377 0.217133 6.94008 0.269445 6.87421 0.349185C6.79415 0.446 6.76402 0.573027 6.79221 0.694121C7.47196 3.61793 10.313 5.55622 13.3408 5.24664C13.2758 5.49948 13.2256 5.75584 13.2038 6.0154C9.72515 3.47389 4.69946 5.86785 4.69946 10.1125C4.69946 12.1979 6.05883 16.48 8.10821 18.2714H3.74296C1.70421 18.2714 0.140834 19.9432 0.274584 21.8765C0.395084 23.6356 1.96408 25.0136 3.84652 25.0136ZM7.72927 0.926863C10.2443 0.586529 12.6644 2.06823 13.4271 4.41448C10.91 4.75633 8.49133 3.27693 7.72927 0.926863ZM28.8841 27.3883C28.9887 28.8999 27.7598 30.1219 26.257 30.1219H5.92971C5.49902 30.1219 5.14877 29.7825 5.14877 29.3655V27.9762H21.2336C21.4665 27.9762 21.6553 27.7933 21.6553 27.5677C21.6553 27.3421 21.4665 27.1593 21.2336 27.1593H5.14871V25.7702C5.14871 25.3529 5.49902 25.0136 5.92965 25.0136H26.1533C27.5933 25.0136 28.7928 26.0565 28.8841 27.3883ZM5.54265 10.1125C5.54265 6.17125 10.5955 4.28431 13.3265 7.22392C13.3309 7.2287 13.3376 7.23016 13.3423 7.2347C13.5384 7.44086 13.851 7.40405 13.9992 7.17954C16.7478 4.30659 21.7369 6.18578 21.7369 10.1126C21.7369 12.6613 19.5801 18.2715 17.2758 18.2715C16.0096 18.2715 14.7988 17.7482 13.9536 16.8359C13.7865 16.6554 13.4936 16.655 13.3261 16.8359C12.481 17.7482 11.2701 18.2715 10.004 18.2715C7.69965 18.2714 5.54265 12.6612 5.54265 10.1125ZM14.4079 18.2714H12.8718C13.1441 18.1022 13.4018 17.9094 13.6399 17.6926C13.8779 17.9094 14.1356 18.1022 14.4079 18.2714ZM3.74296 19.0883H24.0703C24.501 19.0883 24.8512 19.4276 24.8512 19.8448V21.2341H8.76633C8.53346 21.2341 8.34471 21.417 8.34471 21.6426C8.34471 21.8681 8.53346 22.051 8.76633 22.051H24.8512V23.4401C24.8512 23.8574 24.5009 24.1967 24.0703 24.1967C16.1478 24.1967 7.22015 24.1967 3.84658 24.1967C2.40671 24.1967 1.20727 23.1537 1.11583 21.822C1.01127 20.3115 2.23921 19.0883 3.74296 19.0883Z" fill="#C9961A" stroke="#C9961A" />
</svg>
