<svg width="37" height="37" viewBox="0 0 37 37" fill="none" xmlns="http://www.w3.org/2000/svg">
<path d="M12.3333 7.7085C8.07614 7.7085 4.625 12.3549 4.625 17.0014C4.625 22.4222 5.39583 26.2942 8.47917 30.9406C10.8232 34.0806 13.9525 34.8677 17.2881 32.6685C18 32.1993 19 32.1993 19.7119 32.6685C23.0475 34.8677 26.1769 34.0806 28.5208 30.9406C31.6042 26.2942 32.375 22.4222 32.375 17.0014C32.375 12.3549 28.9238 7.7085 24.6667 7.7085C22.4692 7.7085 20.4864 8.91855 19.0823 10.2253C18.7559 10.529 18.2441 10.529 17.9177 10.2253C16.5136 8.91855 14.5309 7.7085 12.3333 7.7085Z" stroke="#1E7974" stroke-width="1.5" stroke-linejoin="round"/>
<path d="M9.25 18.5002C9.25 15.9819 10.5184 13.4635 12.3333 12.3335" stroke="#1E7974" stroke-width="1.5" stroke-linecap="round" stroke-linejoin="round"/>
<path d="M18.5 9.25016C18.5 7.19461 19.425 3.0835 23.125 3.0835" stroke="#1E7974" stroke-width="1.5" stroke-linecap="round" stroke-linejoin="round"/>
</svg>
