<svg width="34" height="34" viewBox="0 0 34 34" fill="none" xmlns="http://www.w3.org/2000/svg">
<path d="M32.9841 9.86477C32.9757 9.82662 32.9627 9.78912 32.9459 9.75356L29.8501 3.2856C29.5667 2.69332 29.0834 2.20513 28.4901 1.91093C26.2742 0.812999 23.9846 0.351972 21.6833 0.541426C20.6235 0.628718 19.6912 1.29084 19.2506 2.26979L17.8861 5.29977C17.2987 6.60461 17.5212 8.14999 18.4529 9.23628L19.5126 10.4719C20.148 11.2123 21.2297 11.4095 22.085 10.9414L24.6594 9.53177C25.1938 11.8524 24.5377 13.8711 23.8468 15.9984C23.2535 17.8244 22.6447 19.6989 22.7146 21.8786C20.9017 19.988 18.5008 18.6993 16.1367 18.4038C13.9053 18.1251 11.8039 18.7077 10.035 20.0895C7.45422 18.2111 4.14362 17.4824 0.909367 18.1755C0.629871 18.2357 0.451952 18.5105 0.511474 18.7898C0.571643 19.0691 0.845963 19.247 1.12611 19.1875C4.8553 18.3883 8.69643 19.664 11.1511 22.5162C11.1989 22.5724 11.2468 22.6287 11.2941 22.6856C11.3963 22.8091 11.5444 22.8731 11.6932 22.8731C11.8097 22.8731 11.9262 22.8343 12.0232 22.7541C12.2432 22.5718 12.2742 22.2459 12.0918 22.0261C12.0407 21.964 11.9889 21.9026 11.9365 21.8418C11.6027 21.4538 11.2449 21.0924 10.8677 20.7581C12.3745 19.6556 14.1395 19.1978 16.0086 19.4312C18.6295 19.7584 21.3106 21.4519 23.0057 23.8514C23.1467 24.0512 23.4081 24.1249 23.6333 24.0279C23.8578 23.9316 23.9846 23.6911 23.9361 23.4512C23.3945 20.7445 24.125 18.4943 24.8321 16.3179C25.6007 13.9526 26.3952 11.5065 25.4797 8.60778L25.4785 8.60519L25.4772 8.60131C25.3497 8.21659 25.1905 7.82927 25.0042 7.45036C24.8781 7.19431 24.5675 7.08827 24.3113 7.21435C24.0551 7.34044 23.949 7.65081 24.0752 7.90686C24.1754 8.11054 24.2654 8.31681 24.3469 8.52308L21.5875 10.0342C21.1586 10.2689 20.6164 10.17 20.2981 9.79882L20.0095 9.46259L21.1657 8.7274C21.7557 8.35237 21.9518 7.58033 21.6121 6.96929L21.3223 6.44748C21.1832 6.1979 20.8681 6.10802 20.6183 6.24639C20.3686 6.38541 20.2787 6.70031 20.4171 6.94989L20.707 7.4717C20.7807 7.6049 20.738 7.77302 20.6099 7.85449L19.3289 8.66921L19.2383 8.56316C18.5661 7.77948 18.4057 6.66539 18.8294 5.72458L20.1939 2.69461C20.4799 2.059 21.0829 1.62901 21.7674 1.5734C23.8778 1.40011 25.985 1.82622 28.0295 2.8388C28.4164 3.03084 28.7315 3.34832 28.9152 3.73305L31.9851 10.148C32.6334 13.1017 32.6231 16.2079 31.9541 19.3827L30.499 26.2891C29.8482 29.3786 27.3282 31.7619 24.2285 32.2204C21.1437 32.6762 17.1279 32.7706 8.76436 30.4558C9.00439 30.2592 9.2166 30.0782 9.39452 29.9211C9.60867 29.7323 9.62937 29.4051 9.44045 29.191C9.25153 28.977 8.92416 28.9563 8.71001 29.1451C7.75572 29.9857 5.81413 31.5369 3.53481 32.4822C3.27085 32.5915 3.14533 32.8948 3.25532 33.1586C3.33813 33.3577 3.53029 33.478 3.73344 33.478C3.79943 33.478 3.86672 33.4651 3.93141 33.4386C5.38777 32.8346 6.70761 32.0025 7.74666 31.2427C7.76283 31.2492 7.77965 31.255 7.79647 31.2595C11.9799 32.4493 16.3897 33.5 20.7788 33.5C21.9822 33.5 23.1836 33.4211 24.3786 33.2446C27.9046 32.7234 30.7708 30.0142 31.5103 26.5031L32.9653 19.5968C33.6725 16.2545 33.6776 12.9807 32.9841 9.86477Z" fill="#C9961A"/>
<path d="M19.9138 28.6912C19.9578 28.6912 20.0018 28.6912 20.0458 28.6906C20.3317 28.6873 20.5608 28.4533 20.5575 28.1675C20.5543 27.8836 20.3233 27.656 20.0399 27.656H20.0341C17.595 27.6825 15.0025 26.8937 12.1125 25.2435C11.8647 25.1019 11.5483 25.1879 11.4066 25.4362C11.2649 25.6845 11.351 26.0001 11.5994 26.1417C14.6027 27.8565 17.3239 28.6912 19.9138 28.6912Z" fill="#C9961A"/>
<path d="M32.9841 9.86477C32.9757 9.82662 32.9627 9.78912 32.9459 9.75356L29.8501 3.2856C29.5667 2.69332 29.0834 2.20513 28.4901 1.91093C26.2742 0.812999 23.9846 0.351972 21.6833 0.541426C20.6235 0.628718 19.6912 1.29084 19.2506 2.26979L17.8861 5.29977C17.2987 6.60461 17.5212 8.14999 18.4529 9.23628L19.5126 10.4719C20.148 11.2123 21.2297 11.4095 22.085 10.9414L24.6594 9.53177C25.1938 11.8524 24.5377 13.8711 23.8468 15.9984C23.2535 17.8244 22.6447 19.6989 22.7146 21.8786C20.9017 19.988 18.5008 18.6993 16.1367 18.4038C13.9053 18.1251 11.8039 18.7077 10.035 20.0895C7.45422 18.2111 4.14362 17.4824 0.909367 18.1755C0.629871 18.2357 0.451952 18.5105 0.511474 18.7898C0.571643 19.0691 0.845963 19.247 1.12611 19.1875C4.8553 18.3883 8.69643 19.664 11.1511 22.5162C11.1989 22.5724 11.2468 22.6287 11.2941 22.6856C11.3963 22.8091 11.5444 22.8731 11.6932 22.8731C11.8097 22.8731 11.9262 22.8343 12.0232 22.7541C12.2432 22.5718 12.2742 22.2459 12.0918 22.0261C12.0407 21.964 11.9889 21.9026 11.9365 21.8418C11.6027 21.4538 11.2449 21.0924 10.8677 20.7581C12.3745 19.6556 14.1395 19.1978 16.0086 19.4312C18.6295 19.7584 21.3106 21.4519 23.0057 23.8514C23.1467 24.0512 23.4081 24.1249 23.6333 24.0279C23.8578 23.9316 23.9846 23.6911 23.9361 23.4512C23.3945 20.7445 24.125 18.4943 24.8321 16.3179C25.6007 13.9526 26.3952 11.5065 25.4797 8.60778L25.4785 8.60519L25.4772 8.60131C25.3497 8.21659 25.1905 7.82927 25.0042 7.45036C24.8781 7.19431 24.5675 7.08827 24.3113 7.21435C24.0551 7.34044 23.949 7.65081 24.0752 7.90686C24.1754 8.11054 24.2654 8.31681 24.3469 8.52308L21.5875 10.0342C21.1586 10.2689 20.6164 10.17 20.2981 9.79882L20.0095 9.46259L21.1657 8.7274C21.7557 8.35237 21.9518 7.58033 21.6121 6.96929L21.3223 6.44748C21.1832 6.1979 20.8681 6.10802 20.6183 6.24639C20.3686 6.38541 20.2787 6.70031 20.4171 6.94989L20.707 7.4717C20.7807 7.6049 20.738 7.77302 20.6099 7.85449L19.3289 8.66921L19.2383 8.56316C18.5661 7.77948 18.4057 6.66539 18.8294 5.72458L20.1939 2.69461C20.4799 2.059 21.0829 1.62901 21.7674 1.5734C23.8778 1.40011 25.985 1.82622 28.0295 2.8388C28.4164 3.03084 28.7315 3.34832 28.9152 3.73305L31.9851 10.148C32.6334 13.1017 32.6231 16.2079 31.9541 19.3827L30.499 26.2891C29.8482 29.3786 27.3282 31.7619 24.2285 32.2204C21.1437 32.6762 17.1279 32.7706 8.76436 30.4558C9.00439 30.2592 9.2166 30.0782 9.39452 29.9211C9.60867 29.7323 9.62937 29.4051 9.44045 29.191C9.25153 28.977 8.92416 28.9563 8.71001 29.1451C7.75572 29.9857 5.81413 31.5369 3.53481 32.4822C3.27085 32.5915 3.14533 32.8948 3.25532 33.1586C3.33813 33.3577 3.53029 33.478 3.73344 33.478C3.79943 33.478 3.86672 33.4651 3.93141 33.4386C5.38777 32.8346 6.70761 32.0025 7.74666 31.2427C7.76283 31.2492 7.77965 31.255 7.79647 31.2595C11.9799 32.4493 16.3897 33.5 20.7788 33.5C21.9822 33.5 23.1836 33.4211 24.3786 33.2446C27.9046 32.7234 30.7708 30.0142 31.5103 26.5031L32.9653 19.5968C33.6725 16.2545 33.6776 12.9807 32.9841 9.86477Z" stroke="#C9961A"/>
<path d="M19.9138 28.6912C19.9578 28.6912 20.0018 28.6912 20.0458 28.6906C20.3317 28.6873 20.5608 28.4533 20.5575 28.1675C20.5543 27.8836 20.3233 27.656 20.0399 27.656H20.0341C17.595 27.6825 15.0025 26.8937 12.1125 25.2435C11.8647 25.1019 11.5483 25.1879 11.4066 25.4362C11.2649 25.6845 11.351 26.0001 11.5994 26.1417C14.6027 27.8565 17.3239 28.6912 19.9138 28.6912Z" stroke="#C9961A"/>
</svg>
