<svg width="28" height="28" viewBox="0 0 28 28" fill="none" xmlns="http://www.w3.org/2000/svg">
<path d="M13.4166 18.6667C15.6717 18.6667 17.4999 16.8385 17.4999 14.5833C17.4999 12.3282 15.6717 10.5 13.4166 10.5C11.1614 10.5 9.33325 12.3282 9.33325 14.5833C9.33325 16.8385 11.1614 18.6667 13.4166 18.6667Z" stroke="#C9961A" stroke-width="1.5" stroke-linecap="round" stroke-linejoin="round"/>
<path d="M3.49992 9.33325C3.49992 5.24992 6.41659 2.33325 11.0833 2.33325C16.9166 2.33325 16.7183 5.83325 19.8333 8.16659C22.9483 10.4999 25.6666 10.4999 25.6666 15.1666C25.6666 20.4166 22.7499 22.7499 17.4999 22.7499C14.5833 22.7499 14.5833 25.6666 10.4999 25.6666C6.41659 25.6666 2.33325 23.3333 2.33325 19.2499C2.33325 15.7499 4.08325 15.7499 4.08325 13.4166C4.08325 11.6666 3.49992 10.4999 3.49992 9.33325Z" stroke="#C9961A" stroke-width="1.5" stroke-linecap="round" stroke-linejoin="round"/>
</svg>
