<svg xmlns="http://www.w3.org/2000/svg" viewBox="0 0 64 64" fill="none">
  <path
    fill="currentColor"
    d="M58.88 20.557v-6.528a4.826 4.826 0 0 0-4.82-4.82h-2.08V7.502a5.075 5.075 0 1 0-10.15 0V9.21h-4.755V7.5a5.075 5.075 0 1 0-10.15 0V9.21H22.17V7.5a5.075 5.075 0 1 0-10.15 0V9.21H9.945a4.826 4.826 0 0 0-4.826 4.819v42.118a5.434 5.434 0 0 0 5.427 5.428h42.88a5.435 5.435 0 0 0 5.453-5.428v-35.59ZM43.75 7.501a3.155 3.155 0 1 1 6.31 0v5.344a3.155 3.155 0 1 1-6.31 0V7.501Zm-14.905 0a3.155 3.155 0 1 1 6.31 0v5.344a3.155 3.155 0 1 1-6.31 0V7.501Zm-14.906 0a3.155 3.155 0 1 1 6.31 0v5.344a3.155 3.155 0 1 1-6.31 0V7.501ZM56.96 56.147a3.514 3.514 0 0 1-3.507 3.508h-42.88a3.515 3.515 0 0 1-3.533-3.508v-34.63h49.92v34.63ZM7.04 19.597v-5.568a2.9 2.9 0 0 1 2.9-2.9h2.073v1.716a5.075 5.075 0 0 0 10.15 0V11.13h4.756v1.715a5.075 5.075 0 0 0 10.15 0V11.13h4.755v1.715a5.075 5.075 0 0 0 10.15 0V11.13h2.074a2.898 2.898 0 0 1 2.912 2.899v5.568H7.04ZM20.832 35.84c.018.05.039.1.064.147 1.869 4.141 5.984 8.173 10.707 10.31a.986.986 0 0 0 .794 0c4.928-2.24 9.171-6.482 10.925-10.764a.089.089 0 0 1 0-.038c.234-.579.426-1.174.576-1.78a7.89 7.89 0 0 0-1.376-7.001 6.574 6.574 0 0 0-4.8-2.688c-2.483-.141-4.672 1.28-5.76 2.144-1.063-.845-3.252-2.285-5.76-2.144a6.554 6.554 0 0 0-4.794 2.688 7.871 7.871 0 0 0-1.382 7.001 13.2 13.2 0 0 0 .806 2.125ZM32 44.36a20.992 20.992 0 0 1-8.685-7.847h2.925a.96.96 0 0 0 .838-.499l.314-.57 1.389-2.521 1.1 2.47 2.228 4.999a.96.96 0 0 0 .761.563h.116a.966.966 0 0 0 .761-.378l3.411-4.48h3.776A20.8 20.8 0 0 1 32 44.36Zm-9.037-16.436a4.712 4.712 0 0 1 3.399-1.977h.237c2.483 0 4.703 2.163 4.723 2.182a.966.966 0 0 0 1.357 0s2.4-2.31 4.96-2.176a4.71 4.71 0 0 1 3.398 1.978 5.939 5.939 0 0 1 1.005 5.35c-.075.31-.167.616-.276.915h-5.12a.953.953 0 0 0-.761.378l-.55.723-2.17 2.842-1.229-2.784-2.214-4.98a.953.953 0 0 0-1.716-.07l-2.361 4.288H22.4a9.823 9.823 0 0 1-.441-1.312 5.94 5.94 0 0 1 1.004-5.357ZM21.76 56.96h20.115a3.885 3.885 0 0 0 0-7.77H21.76a3.885 3.885 0 0 0 0 7.77Zm0-5.85h20.115a1.965 1.965 0 1 1 0 3.93H21.76a1.965 1.965 0 0 1 0-3.93Zm30.72 1.69V35.386a.96.96 0 0 1 1.92 0V52.8a.96.96 0 1 1-1.92 0Zm0-22.035V28.48a.96.96 0 0 1 1.92 0v2.285a.96.96 0 1 1-1.92 0Z"
  />
</svg>
