<svg width="20" height="21" viewBox="0 0 20 21" fill="none" xmlns="http://www.w3.org/2000/svg">
<path d="M7.5 13C7.5 10.643 7.5 9.4645 8.23223 8.73223C8.9645 8 10.143 8 12.5 8H13.3333C15.6903 8 16.8688 8 17.6011 8.73223C18.3333 9.4645 18.3333 10.643 18.3333 13V13.8333C18.3333 16.1903 18.3333 17.3688 17.6011 18.1011C16.8688 18.8333 15.6903 18.8333 13.3333 18.8333H12.5C10.143 18.8333 8.9645 18.8333 8.23223 18.1011C7.5 17.3688 7.5 16.1903 7.5 13.8333V13Z" stroke="#fff" stroke-linecap="round" stroke-linejoin="round"/>
<path d="M14.1669 7.99984C14.1649 5.5356 14.1277 4.25918 13.4103 3.3852C13.2718 3.21641 13.1171 3.06165 12.9483 2.92314C12.0263 2.1665 10.6566 2.1665 7.91699 2.1665C5.17743 2.1665 3.80764 2.1665 2.88568 2.92314C2.7169 3.06165 2.56214 3.21641 2.42363 3.3852C1.66699 4.30715 1.66699 5.67694 1.66699 8.4165C1.66699 11.1561 1.66699 12.5258 2.42363 13.4478C2.56213 13.6166 2.7169 13.7713 2.88568 13.9098C3.75967 14.6272 5.03608 14.6644 7.50033 14.6664" stroke="#fff" stroke-linecap="round" stroke-linejoin="round"/>
</svg>
