<svg width="24" height="25" viewBox="0 0 24 25" fill="none" xmlns="http://www.w3.org/2000/svg">
<path d="M20 22.5V19.5C20 16.6716 20 15.2574 19.1213 14.3787C18.2426 13.5 16.8284 13.5 14 13.5L12 15.5L10 13.5C7.17157 13.5 5.75736 13.5 4.87868 14.3787C4 15.2574 4 16.6716 4 19.5V22.5" stroke="#1E7974" stroke-width="1.5" stroke-linecap="round" stroke-linejoin="round"/>
<path d="M16 13.5V19" stroke="#1E7974" stroke-width="1.5" stroke-linecap="round" stroke-linejoin="round"/>
<path d="M8.5 13.5V17.5M8.5 17.5C9.60457 17.5 10.5 18.3954 10.5 19.5V20.5M8.5 17.5C7.39543 17.5 6.5 18.3954 6.5 19.5V20.5" stroke="#1E7974" stroke-width="1.5" stroke-linecap="round" stroke-linejoin="round"/>
<path d="M15.5 7V6C15.5 4.067 13.933 2.5 12 2.5C10.067 2.5 8.5 4.067 8.5 6V7C8.5 8.933 10.067 10.5 12 10.5C13.933 10.5 15.5 8.933 15.5 7Z" stroke="#1E7974" stroke-width="1.5" stroke-linecap="round" stroke-linejoin="round"/>
<path d="M16.75 19.75C16.75 20.1642 16.4142 20.5 16 20.5C15.5858 20.5 15.25 20.1642 15.25 19.75C15.25 19.3358 15.5858 19 16 19C16.4142 19 16.75 19.3358 16.75 19.75Z" stroke="#1E7974" stroke-width="1.5"/>
</svg>
