<svg width="25" height="24" viewBox="0 0 25 24" fill="none" xmlns="http://www.w3.org/2000/svg">
<path d="M8.48438 13.7323C8.48438 13.7323 9.38984 12.5102 9.98438 12.2319C11.7792 11.3915 12.1443 11.0263 12.9844 9.23094C13.2627 8.63621 14.4844 7.73047 14.4844 7.73047M10.9844 16.2331C10.9844 16.2331 12.2061 15.3273 12.4844 14.7326C13.3245 12.9373 13.6896 12.5721 15.4844 11.7317C16.0789 11.4533 16.9844 10.2312 16.9844 10.2312" fill="#1E7974" fill-opacity="0.2"/>
<path d="M8.48438 13.7323C8.48438 13.7323 9.38984 12.5102 9.98438 12.2319C11.7792 11.3915 12.1443 11.0263 12.9844 9.23094C13.2627 8.63621 14.4844 7.73047 14.4844 7.73047M10.9844 16.2331C10.9844 16.2331 12.2061 15.3273 12.4844 14.7326C13.3245 12.9373 13.6896 12.5721 15.4844 11.7317C16.0789 11.4533 16.9844 10.2312 16.9844 10.2312" stroke="#1E7974" stroke-linecap="round" stroke-linejoin="round"/>
<path d="M15.1813 2.8921C15.6882 2.38346 16.5113 2.38215 17.0198 2.88919L21.8316 7.68729C22.3401 8.19433 22.3414 9.0177 21.8345 9.52635L20.3059 11.0603C19.799 11.5689 18.9759 11.5702 18.4674 11.0632L13.6556 6.2651C13.1472 5.75806 13.1459 4.93469 13.6527 4.42604L15.1813 2.8921Z" fill="#1E7974" fill-opacity="0.2" stroke="#1E7974"/>
<path d="M5.16377 12.9023C5.67065 12.3937 6.49376 12.3924 7.00225 12.8994L11.8141 17.6975C12.3225 18.2046 12.3238 19.0279 11.817 19.5366L10.2884 21.0705C9.78148 21.5792 8.95837 21.5805 8.44988 21.0734L3.63808 16.2753C3.12959 15.7683 3.12829 14.9449 3.63517 14.4363L5.16377 12.9023Z" fill="#1E7974" fill-opacity="0.2" stroke="#1E7974"/>
<path d="M18.6877 3.45251C20.5701 0.985436 23.89 3.84007 21.2931 6.02869L18.6877 3.45251ZM4.12811 17.9773C1.74847 19.9687 4.74782 23.1586 6.81742 20.4657L4.12811 17.9773Z" fill="#1E7974" fill-opacity="0.2"/>
<path d="M18.6877 3.45251C20.5701 0.985436 23.89 3.84007 21.2931 6.02869M4.12811 17.9773C1.74847 19.9687 4.74782 23.1586 6.81742 20.4657" stroke="#1E7974" stroke-linecap="round" stroke-linejoin="round"/>
</svg>
