<svg width="24" height="24" viewBox="0 0 24 24" fill="none" xmlns="http://www.w3.org/2000/svg">
<path d="M17 8C17 8 19.7161 10.1958 20.7611 11.4044C20.9291 11.5987 21.0085 11.8169 20.9993 12.0337C20.991 12.2282 20.9116 12.4215 20.7609 12.5958C19.7157 13.8041 17 16 17 16M20 12.0337L9 12.0337" stroke="#D42024" stroke-width="1.5" stroke-linecap="round" stroke-linejoin="round"/>
<path d="M13 8C13 6.59987 13 5.8998 12.7275 5.36502C12.4878 4.89462 12.1054 4.51217 11.635 4.27248C11.1002 4 10.4001 4 9 4L8 4C5.643 4 4.4645 4 3.7322 4.73223C3 5.46447 3 6.64298 3 9L3 15C3 17.357 3 18.5355 3.7322 19.2678C4.4645 20 5.643 20 8 20L9 20C10.4001 20 11.1002 20 11.635 19.7275C12.1054 19.4878 12.4878 19.1054 12.7275 18.635C13 18.1002 13 17.4001 13 16" stroke="#D42024" stroke-width="1.5" stroke-linecap="round" stroke-linejoin="round"/>
</svg>
