<svg width="69" height="69" viewBox="0 0 69 69" fill="none" xmlns="http://www.w3.org/2000/svg">
<g clip-path="url(#clip0_2012_132)">
<path d="M36.4562 61.7347H43.2216" stroke="#1E7974" stroke-width="2.5" stroke-miterlimit="10" stroke-linecap="round" stroke-linejoin="round"/>
<path d="M17.0762 14.0261H10.6881C9.00917 14.0261 7.64819 15.3621 7.64819 17.0101V58.7507C7.64819 60.3987 9.00917 61.7347 10.6881 61.7347H31.721" stroke="#1E7974" stroke-width="2.5" stroke-miterlimit="10" stroke-linecap="round" stroke-linejoin="round"/>
<path d="M38.9387 14.0261H45.3269C47.0058 14.0261 48.3668 15.3621 48.3668 17.0101V45.9783" stroke="#1E7974" stroke-width="2.5" stroke-miterlimit="10" stroke-linecap="round" stroke-linejoin="round"/>
<path d="M38.8043 8.76068H47.7101C51.1924 8.76068 54.0131 11.5308 54.0131 14.9477V41.4048" stroke="#1E7974" stroke-width="2.5" stroke-miterlimit="10" stroke-linecap="round" stroke-linejoin="round"/>
<path d="M2 25.6989V60.813C2 64.2298 4.82206 67 8.30296 67H47.7103C48.3069 67 48.8846 66.9189 49.4311 66.7662" stroke="#1E7974" stroke-width="2.5" stroke-miterlimit="10" stroke-linecap="round" stroke-linejoin="round"/>
<path d="M17.2102 8.76068H8.30296C4.82206 8.76068 2 11.5308 2 14.9477V21.051" stroke="#1E7974" stroke-width="2.5" stroke-miterlimit="10" stroke-linecap="round" stroke-linejoin="round"/>
<path d="M36.27 6.95952H35.0834C34.7263 6.95952 34.4229 6.70362 34.3691 6.35702C33.8974 3.32381 31.229 1 28.0072 1C24.7853 1 22.117 3.32381 21.6452 6.35702C21.5914 6.70362 21.2881 6.95952 20.9309 6.95952H19.7443C18.2705 6.95952 17.0757 8.13238 17.0757 9.57907V14.319C17.0757 15.7657 18.2705 16.9385 19.7443 16.9385H36.27C37.7438 16.9385 38.9386 15.7657 38.9386 14.319V9.57907C38.9385 8.13225 37.7438 6.95952 36.27 6.95952Z" stroke="#1E7974" stroke-width="2.5" stroke-miterlimit="10" stroke-linecap="round" stroke-linejoin="round"/>
<path d="M60.8067 45.8733C59.7777 45.6952 58.7524 45.7313 57.7649 45.9532C55.8389 46.3862 53.8346 46.3862 51.9085 45.9532C50.9211 45.7313 49.8958 45.6951 48.8668 45.8733C43.9623 46.7221 40.8312 52.1143 41.8736 57.917C42.916 63.7197 47.7369 67.7356 52.6414 66.8866C53.1405 66.8003 53.621 66.6667 54.0807 66.4905C54.5665 66.3043 55.1068 66.3043 55.5926 66.4905C56.0523 66.6667 56.5329 66.8003 57.0319 66.8866C61.9365 67.7355 66.7575 63.7197 67.7997 57.917C68.8422 52.1143 65.7112 46.7221 60.8067 45.8733Z" stroke="#1E7974" stroke-width="2.5" stroke-miterlimit="10" stroke-linecap="round" stroke-linejoin="round"/>
<path d="M62.0736 46.2053C62.2819 45.9915 62.4781 45.7657 62.6621 45.5254C62.888 45.2306 63.1004 44.9185 63.2966 44.5931C64.3978 42.7924 64.9782 40.5322 64.7171 38.268C64.6413 37.6027 64.1651 37.1353 63.4873 37.0609C61.1807 36.8046 58.8781 37.373 57.0437 38.4553C56.7109 38.6478 56.3943 38.855 56.094 39.0768C55.22 39.7208 54.5138 40.5282 54.0133 41.4047C53.2922 42.6676 53.0013 44.0726 53.2638 45.3302C53.3301 45.6449 53.4288 45.941 53.5587 46.2159" stroke="#1E7974" stroke-width="2.5" stroke-miterlimit="10" stroke-linecap="round" stroke-linejoin="round"/>
<path d="M25.3356 23.3749H41.8569" stroke="#1E7974" stroke-width="2.5" stroke-miterlimit="10" stroke-linecap="round" stroke-linejoin="round"/>
<path d="M25.3356 33.8963H41.8569" stroke="#1E7974" stroke-width="2.5" stroke-miterlimit="10" stroke-linecap="round" stroke-linejoin="round"/>
<path d="M25.3356 44.4178H41.8569" stroke="#1E7974" stroke-width="2.5" stroke-miterlimit="10" stroke-linecap="round" stroke-linejoin="round"/>
<path d="M18.2738 26.0309H15.4526C14.7373 26.0309 14.1575 25.4618 14.1575 24.7597V21.9903C14.1575 21.2882 14.7373 20.7191 15.4526 20.7191H18.2738C18.9891 20.7191 19.5689 21.2882 19.5689 21.9903V24.7597C19.569 25.4618 18.9891 26.0309 18.2738 26.0309Z" stroke="#1E7974" stroke-width="2.5" stroke-miterlimit="10" stroke-linecap="round" stroke-linejoin="round"/>
<path d="M18.2738 36.5523H15.4526C14.7373 36.5523 14.1575 35.9832 14.1575 35.2811V32.5117C14.1575 31.8096 14.7373 31.2405 15.4526 31.2405H18.2738C18.9891 31.2405 19.5689 31.8096 19.5689 32.5117V35.2811C19.569 35.9832 18.9891 36.5523 18.2738 36.5523Z" stroke="#1E7974" stroke-width="2.5" stroke-miterlimit="10" stroke-linecap="round" stroke-linejoin="round"/>
<path d="M18.2738 47.0736H15.4526C14.7373 47.0736 14.1575 46.5045 14.1575 45.8024V43.033C14.1575 42.3309 14.7373 41.7618 15.4526 41.7618H18.2738C18.9891 41.7618 19.5689 42.3309 19.5689 43.033V45.8024C19.569 46.5045 18.9891 47.0736 18.2738 47.0736Z" stroke="#1E7974" stroke-width="2.5" stroke-miterlimit="10" stroke-linecap="round" stroke-linejoin="round"/>
</g>

</svg>
