<svg width="24" height="24" viewBox="0 0 24 24" fill="none" xmlns="http://www.w3.org/2000/svg">
<path d="M20.5 16.5V8.5C20.5 6.14298 20.5 4.96447 19.7677 4.23223C19.0355 3.5 17.857 3.5 15.5 3.5H8.5C6.14298 3.5 4.96446 3.5 4.23223 4.23223C3.5 4.96447 3.5 6.14298 3.5 8.5V16.5" stroke="#1E7974" stroke-linecap="round" stroke-linejoin="round"/>
<path d="M21.9842 20.5H2.01579C1.63285 20.5 1.38379 20.1088 1.55505 19.7764L3.5 16.5H20.5L22.4449 19.7764C22.6162 20.1088 22.3671 20.5 21.9842 20.5Z" stroke="#1E7974" stroke-linecap="round" stroke-linejoin="round"/>
<path d="M7.5 10H9.5L11 12.5L13 7.5L14.5 10H16.5" stroke="#1E7974" stroke-linecap="round" stroke-linejoin="round"/>
</svg>
