<svg xmlns="http://www.w3.org/2000/svg" viewBox="0 0 12 12" fill="none">
  <g stroke="currentColor">
    <path
      d="M2.25 4.75H2c-.471 0-.707 0-.854.146C1 5.043 1 5.28 1 5.75V10c0 .471 0 .707.146.854C1.293 11 1.53 11 2 11h.25c.471 0 .707 0 .854-.146.146-.147.146-.383.146-.854V5.75c0-.471 0-.707-.146-.854-.147-.146-.383-.146-.854-.146ZM3.25 2.125a1.125 1.125 0 1 1-2.25 0 1.125 1.125 0 0 1 2.25 0Z"
    />
    <path
      strokeLinejoin="round"
      d="M6.163 4.75H5.75c-.471 0-.707 0-.854.146-.146.147-.146.383-.146.854V10c0 .471 0 .707.146.854.147.146.383.146.854.146H6c.471 0 .707 0 .854-.146C7 10.707 7 10.47 7 10V8.25c0-.828.264-1.5 1.044-1.5.39 0 .706.336.706.75v2.25c0 .471 0 .707.146.854.147.146.383.146.854.146H10c.47 0 .706 0 .853-.146.146-.147.146-.382.146-.854L11 7c0-1.242-1.182-2.25-2.352-2.25A2.07 2.07 0 0 0 7 5.587c0-.315 0-.473-.068-.59a.5.5 0 0 0-.18-.179c-.116-.068-.274-.068-.589-.068Z"
    />
  </g>
</svg>
