<svg width="28" height="28" viewBox="0 0 28 28" fill="none" xmlns="http://www.w3.org/2000/svg">
<path d="M14 24.5C16.7848 24.5 19.4555 23.3938 21.4246 21.4246C23.3938 19.4555 24.5 16.7848 24.5 14H3.5C3.5 16.7848 4.60625 19.4555 6.57538 21.4246C8.54451 23.3938 11.2152 24.5 14 24.5Z" stroke="#C9961A" stroke-width="1.5" stroke-linecap="round" stroke-linejoin="round"/>
<path d="M8.16675 24.5H19.8334" stroke="#C9961A" stroke-width="1.5" stroke-linecap="round" stroke-linejoin="round"/>
<path d="M22.75 14L25.6667 7" stroke="#C9961A" stroke-width="1.5" stroke-linecap="round" stroke-linejoin="round"/>
<path d="M18.9584 3.5C19.2734 3.61667 19.8917 4.11833 19.8334 5.08667C19.7634 6.055 18.7484 6.48667 18.6667 7.44333C18.6084 8.35333 19.0634 8.89 19.5184 9.33333" stroke="#C9961A" stroke-width="1.5" stroke-linecap="round" stroke-linejoin="round"/>
<path d="M13.1251 3.5C13.4401 3.61667 14.0584 4.11833 13.9884 5.08667C13.9301 6.055 12.9034 6.48667 12.8451 7.44333C12.7751 8.35333 13.2301 8.89 13.6851 9.33333" stroke="#C9961A" stroke-width="1.5" stroke-linecap="round" stroke-linejoin="round"/>
<path d="M7.29161 3.5C7.60661 3.61667 8.22494 4.11833 8.16661 5.08667C8.09661 6.055 7.08161 6.48667 6.99994 7.44333C6.94161 8.35333 7.39661 8.89 7.86327 9.33333" stroke="#C9961A" stroke-width="1.5" stroke-linecap="round" stroke-linejoin="round"/>
</svg>
