<svg width="88" height="88" viewBox="0 0 88 88" fill="none" xmlns="http://www.w3.org/2000/svg">
<path d="M25.667 27.5L36.4544 33.8779C42.7434 37.5962 45.2573 37.5962 51.5463 33.8779L62.3337 27.5" stroke="#B1B7B6" stroke-width="3" stroke-linecap="round" stroke-linejoin="round"/>
<path d="M80.6399 40.3334C80.6836 37.3059 80.6733 37.9552 80.6084 34.9228C80.369 23.6826 80.2491 18.0624 76.1017 13.8992C71.954 9.73593 66.1819 9.59091 54.6374 9.30084C47.5222 9.12206 40.4771 9.12206 33.362 9.30081C21.8175 9.59084 16.0453 9.73586 11.8978 13.8991C7.75035 18.0624 7.63052 23.6825 7.39079 34.9228C7.31372 38.5371 7.31376 42.1297 7.39083 45.744C7.63052 56.9845 7.75038 62.6044 11.8979 66.7679C16.0453 70.931 21.8176 71.0759 33.3621 71.3659C36.9197 71.4554 40.4595 71.5001 43.9997 71.5001" stroke="#B1B7B6" stroke-width="3" stroke-linecap="round" stroke-linejoin="round"/>
<path d="M74 67.1667L68.5 65.15V56.1667M52 63.5C52 72.6128 59.3872 80 68.5 80C77.6128 80 85 72.6128 85 63.5C85 54.3872 77.6128 47 68.5 47C59.3872 47 52 54.3872 52 63.5Z" stroke="#B1B7B6" stroke-width="3" stroke-linecap="round" stroke-linejoin="round"/>
</svg>
