<svg width="32" height="32" viewBox="0 0 32 32" fill="none" xmlns="http://www.w3.org/2000/svg">
<g clip-path="url(#clip0_548_1221)">
<path d="M4.68104 4.68104C-1.56035 10.9224 -1.56035 21.0775 4.68104 27.3189C7.80189 30.4397 11.901 32.0002 15.9998 32.0002C20.0986 32.0002 24.1983 30.4397 27.3186 27.3189C33.56 21.0775 33.56 10.9224 27.3186 4.68104C21.0772 -1.56035 10.9224 -1.56035 4.68104 4.68104ZM26.762 26.762C20.8278 32.6962 11.1725 32.6962 5.23825 26.762C-0.695984 20.8284 -0.695984 11.1722 5.23825 5.23825C8.20522 2.27098 12.1027 0.7875 15.9998 0.7875C19.897 0.7875 23.7944 2.27098 26.7617 5.23825C32.6962 11.1722 32.6962 20.8278 26.762 26.762Z" fill="#1E7974" stroke="#1E7974" />
<path d="M16 2.0415C8.30303 2.0415 2.0415 8.30363 2.0415 16.0003C2.0415 23.6972 8.30333 29.959 16 29.959C23.6966 29.959 29.9584 23.6972 29.9584 16.0003C29.9584 8.30303 23.6969 2.0415 16 2.0415ZM16 29.1707C8.73762 29.1707 2.82923 23.2623 2.82923 15.9997C2.82923 8.73732 8.73792 2.82953 16 2.82953C23.262 2.82953 29.1707 8.73762 29.1707 15.9997C29.1707 23.2617 23.2623 29.1707 16 29.1707Z" fill="#1E7974" stroke="#1E7974" />
<path d="M11.0429 13.6001L11.1466 13.6248C11.6485 13.742 12.06 14.0984 12.2472 14.5775L12.2863 14.6773C12.6148 15.5176 13.3778 16.0871 14.2762 16.1644C14.3453 16.1701 14.4138 16.1731 14.482 16.1731C15.3028 16.1731 16.0596 15.7502 16.4906 15.0376L16.5456 14.9472C16.8124 14.5063 17.2789 14.225 17.7928 14.1946L17.8989 14.1883C18.7996 14.1351 19.5774 13.5863 19.9285 12.7547C20.2792 11.924 20.1314 10.9833 19.5414 10.3011C19.1615 9.86078 19.022 9.2618 19.1687 8.69978C19.3968 7.8267 19.1149 6.91756 18.4327 6.32669C17.7507 5.73612 16.8103 5.58645 15.9796 5.93628L15.8811 5.97746C15.4059 6.17822 14.8637 6.13103 14.4294 5.85273L14.3408 5.79623C13.5807 5.30935 12.6289 5.29672 11.8565 5.76227C11.0838 6.22871 10.651 7.07624 10.7264 7.97607L10.7358 8.08096C10.779 8.59459 10.5672 9.0962 10.1686 9.42289L10.0869 9.48991C9.38932 10.0624 9.08307 10.9638 9.28744 11.8426C9.49211 12.7205 10.1647 13.3946 11.0429 13.6001ZM10.587 10.0985L10.669 10.0315C11.2677 9.5401 11.5866 8.78604 11.5214 8.01364L11.5124 7.90875C11.4613 7.30165 11.742 6.75136 12.2637 6.43669C12.5183 6.28311 12.796 6.20647 13.0728 6.20647C13.3634 6.20647 13.6537 6.29092 13.9167 6.45953L14.0054 6.51633C14.6579 6.93469 15.4735 7.00381 16.1864 6.70417L16.285 6.6633C16.847 6.42647 17.4568 6.52384 17.9169 6.92236C18.3774 7.32149 18.5607 7.91145 18.4065 8.50082C18.1943 9.31439 18.3957 10.1803 18.9454 10.8162C19.3436 11.2775 19.4398 11.8879 19.2033 12.4491C18.9658 13.0105 18.4612 13.3669 17.8532 13.403L17.7471 13.4093C16.9741 13.4541 16.273 13.8772 15.872 14.5396L15.817 14.6304C15.5018 15.1519 14.9524 15.4335 14.3435 15.3797C13.7367 15.3277 13.2417 14.958 13.0199 14.3912L12.9811 14.2917C12.6989 13.5704 12.0801 13.0345 11.326 12.8578L11.2226 12.8332C10.6294 12.6943 10.1927 12.2573 10.0544 11.6637C9.91707 11.0705 10.1157 10.485 10.587 10.0985Z" fill="#1E7974" stroke="#1E7974" />
<path d="M13.3741 12.7122C13.7771 12.9632 14.2321 13.0921 14.695 13.0921C14.8855 13.0921 15.0779 13.0705 15.2684 13.026C16.6157 12.7128 17.457 11.361 17.1435 10.0139C16.9914 9.36116 16.5947 8.80696 16.0261 8.45262C15.4572 8.09888 14.7845 7.98678 14.1315 8.13915C13.4787 8.29093 12.9245 8.68794 12.5704 9.25687C12.2164 9.8255 12.1049 10.4984 12.2564 11.1512C12.4084 11.804 12.8052 12.3582 13.3741 12.7122ZM13.2388 9.67313C13.482 9.28302 13.8625 9.01043 14.31 8.90644C14.4407 8.87609 14.5724 8.86136 14.7034 8.86136C15.0211 8.86136 15.3333 8.95002 15.6095 9.12163C15.9996 9.36477 16.2722 9.74496 16.3762 10.1928C16.5911 11.1169 16.0141 12.0438 15.0899 12.259C14.6424 12.3633 14.1807 12.2864 13.7903 12.0438C13.4005 11.8007 13.1279 11.4205 13.024 10.9727C12.9194 10.5249 12.9963 10.0635 13.2388 9.67313Z" fill="#1E7974" stroke="#1E7974" />
<path d="M17.4375 24.2968C17.4441 24.2905 17.4525 24.2884 17.4589 24.2818C17.6064 24.1219 17.5962 23.8724 17.4363 23.7252C16.9897 23.3125 16.8578 23.0369 16.7048 22.7171C16.5407 22.3742 16.3547 21.9859 15.7969 21.4711C15.239 20.9556 14.8369 20.8018 14.4823 20.6653C14.1517 20.5385 13.8662 20.4282 13.4196 20.0167C12.9732 19.6047 12.8413 19.3288 12.6886 19.0093C12.5245 18.6667 12.3391 18.2781 11.7816 17.7639C11.2241 17.2487 10.822 17.0949 10.467 16.9584C10.1364 16.8316 9.8512 16.7219 9.40459 16.3101C8.95828 15.8981 8.82634 15.6225 8.67397 15.303C8.50957 14.9601 8.32413 14.5718 7.76663 14.0573C7.60674 13.9097 7.35759 13.9193 7.21002 14.0792C7.20761 14.0822 7.20731 14.0852 7.20491 14.0879C7.20281 14.0903 7.1998 14.0912 7.1974 14.093L5.10321 16.3618C5.08698 16.379 5.08037 16.4009 5.06774 16.4201C5.04971 16.434 5.02897 16.4424 5.01304 16.4595C4.86548 16.6194 4.8757 16.8689 5.03558 17.0161C5.48189 17.4282 5.61383 17.7038 5.76621 18.0232C5.9306 18.3662 6.11604 18.7545 6.67355 19.269C7.23076 19.7838 7.63318 19.9377 7.98813 20.0742C8.31842 20.201 8.60364 20.311 9.05055 20.7224C9.49686 21.1345 9.62879 21.4104 9.78147 21.7298C9.94587 22.0725 10.1313 22.4611 10.6888 22.9753C11.2466 23.4907 11.6487 23.6446 12.0034 23.7811C12.334 23.9082 12.6195 24.0182 13.0661 24.4299C13.5127 24.8423 13.645 25.1179 13.7976 25.438C13.962 25.7806 14.1478 26.1689 14.7056 26.684C14.7813 26.754 14.8775 26.7886 14.9728 26.7886C15.0792 26.7886 15.1846 26.7462 15.2622 26.6621C15.2745 26.6488 15.2793 26.6323 15.2895 26.6176C15.3025 26.6071 15.3184 26.602 15.3301 26.589L17.4237 24.3208C17.4297 24.3133 17.4318 24.304 17.4375 24.2968ZM7.96228 15.6429C8.12638 15.9856 8.31211 16.3739 8.86962 16.8884C9.42743 17.4032 9.82926 17.5574 10.1842 17.6935C10.5148 17.8204 10.8 17.9304 11.2466 18.3421C11.6929 18.7545 11.8249 19.0298 11.9772 19.3492C12.1416 19.6922 12.3271 20.0805 12.8846 20.595C13.4424 21.1101 13.8445 21.2643 14.1992 21.4005C14.5295 21.5279 14.8153 21.6376 15.2619 22.0493C15.7085 22.4617 15.8407 22.7376 15.9934 23.0573C16.1262 23.3347 16.2771 23.6434 16.6242 24.0233L16.0607 24.6334C15.8248 24.3644 15.7208 24.148 15.6054 23.9067C15.441 23.5641 15.2553 23.1755 14.6975 22.6606C14.1397 22.1455 13.7375 21.9913 13.3829 21.8552C13.0523 21.7283 12.7668 21.618 12.3202 21.2063C11.8739 20.7943 11.7416 20.5184 11.5889 20.1989C11.4251 19.8563 11.2391 19.4683 10.6816 18.9537C10.1238 18.4386 9.72166 18.2844 9.36702 18.1483C9.03672 18.0214 8.75151 17.9114 8.3046 17.4997C7.85829 17.0876 7.72695 16.812 7.57398 16.4929C7.44114 16.2155 7.29086 15.9071 6.94404 15.5275L7.50756 14.9171C7.74348 15.1858 7.84687 15.4022 7.96228 15.6429ZM14.5075 25.0971C14.3431 24.7545 14.1574 24.3659 13.5996 23.8511C13.0418 23.336 12.6396 23.1818 12.285 23.0456C11.9544 22.9188 11.6689 22.8085 11.2223 22.3968C10.776 21.9844 10.644 21.7088 10.4914 21.3893C10.3273 21.0467 10.1412 20.6584 9.58371 20.1439C9.0265 19.629 8.62408 19.4749 8.26974 19.3384C7.93914 19.2119 7.65362 19.1019 7.20731 18.6898C6.76101 18.2775 6.62907 18.0022 6.47639 17.6827C6.34385 17.4053 6.19328 17.097 5.84675 16.7171L6.40997 16.107C6.6456 16.3757 6.74898 16.5918 6.86439 16.8325C7.02849 17.1751 7.21423 17.5631 7.77173 18.0776C8.32924 18.5925 8.73137 18.7466 9.08601 18.8828C9.41631 19.0096 9.70213 19.1196 10.1487 19.5317C10.595 19.9437 10.7267 20.2196 10.8794 20.5385C11.0435 20.8814 11.2292 21.2697 11.7867 21.7842C12.3445 22.2994 12.7466 22.4536 13.1013 22.5897C13.4316 22.7171 13.7174 22.8268 14.164 23.2386C14.6106 23.6509 14.7428 23.9268 14.8955 24.2466C15.0284 24.524 15.1792 24.8327 15.5264 25.2125L14.9628 25.8227C14.7269 25.5549 14.6229 25.3385 14.5075 25.0971Z" fill="#1E7974" stroke="#1E7974" />
<path d="M24.5985 10.7803C24.2622 10.9312 23.9694 11.1863 23.7552 11.5115C23.0194 11.3252 22.1749 11.7562 21.7668 12.5724C21.7058 12.6954 21.6565 12.8213 21.6192 12.9505C21.0785 13.0635 20.5826 13.4585 20.301 14.0217C20.1865 14.2498 20.115 14.4905 20.0873 14.734C19.5244 14.8253 19.0003 15.2244 18.703 15.818C18.486 16.252 18.4214 16.7332 18.5203 17.1732C18.5672 17.3808 18.6474 17.5687 18.7571 17.7307C18.468 17.9002 18.1449 18.1689 17.9387 18.5854C17.6066 19.2562 17.6731 20.0957 18.1362 21.0796C19.1316 23.1949 18.5026 24.7974 18.3355 25.1532L18.3147 25.195C18.3024 25.2187 18.2949 25.2341 18.2922 25.2401C18.2919 25.2404 18.2916 25.2416 18.291 25.2425L17.334 27.1551C17.237 27.3499 17.3157 27.5867 17.5102 27.6838C17.567 27.712 17.6268 27.7253 17.686 27.7253C17.8305 27.7253 17.9697 27.6456 18.0388 27.5074L18.996 25.5938C19.0018 25.583 19.0099 25.5674 19.0201 25.5466C19.1635 25.2824 20.0963 23.7307 22.4619 23.2423C23.527 23.0221 24.2384 22.5724 24.5762 21.9037C24.7905 21.4797 24.8077 21.0499 24.7662 20.7133C24.9483 20.6994 25.1335 20.652 25.3147 20.5708C25.7261 20.386 26.0724 20.0452 26.2893 19.6112C26.5806 19.0284 26.5899 18.3781 26.3377 17.8752C26.5202 17.7048 26.6737 17.4996 26.79 17.2663C27.1158 16.6154 27.0807 15.8667 26.732 15.3507C26.781 15.277 26.8252 15.2007 26.8649 15.122C27.0819 14.688 27.1465 14.2068 27.0476 13.7668C26.9731 13.4356 26.8132 13.1549 26.5863 12.9493C26.7239 12.5776 26.7549 12.1832 26.6722 11.8172C26.5664 11.3486 26.2902 10.9811 25.8938 10.7827C25.4971 10.5844 25.0379 10.5835 24.5985 10.7803ZM25.9034 11.9906C25.9627 12.2539 25.9203 12.5484 25.7844 12.8201L25.7463 12.8892C25.688 12.992 25.6792 13.1155 25.7216 13.2255C25.7589 13.3208 25.8313 13.3977 25.9227 13.4401C26.1 13.5318 26.2262 13.7088 26.2782 13.9402C26.3377 14.2032 26.2954 14.498 26.1595 14.7697C26.1003 14.8884 26.0243 14.9969 25.9332 15.094C25.8596 15.1725 25.8211 15.2779 25.8268 15.3849C25.8328 15.4925 25.8824 15.5932 25.9645 15.6632C26.2623 15.9178 26.3143 16.4558 26.0844 16.9144C25.9699 17.1431 25.8025 17.3283 25.5996 17.4494C25.4971 17.5101 25.4283 17.6144 25.4112 17.7325C25.3946 17.8506 25.4322 17.9696 25.5136 18.0568C25.7709 18.3318 25.8001 18.8262 25.5834 19.2589C25.4475 19.5306 25.2371 19.7416 24.991 19.8519C24.7722 19.9499 24.5516 19.9547 24.3713 19.8636C24.1762 19.7672 23.9409 19.845 23.8429 20.0386C23.7654 20.193 23.7984 20.3734 23.9123 20.4903C23.974 20.6775 24.0825 21.131 23.8715 21.5488C23.6476 21.9921 23.1195 22.3019 22.3017 22.4712C21.4085 22.6554 20.6923 22.9737 20.1267 23.3307L21.2588 21.067L23.0041 20.4861C23.2103 20.4172 23.3218 20.1942 23.2533 19.9875C23.1847 19.7813 22.9614 19.671 22.7549 19.738L21.7577 20.0701L22.3961 18.7934L24.1414 18.2118C24.3478 18.143 24.4596 17.92 24.3905 17.7132C24.322 17.5071 24.0987 17.3965 23.8922 17.4638L22.895 17.7962L23.5799 16.4266L25.3249 15.8451C25.5314 15.7765 25.6429 15.5535 25.574 15.3468C25.5055 15.1409 25.2828 15.0282 25.0757 15.0979L24.0782 15.4303L24.8056 13.976C24.9026 13.7815 24.8239 13.5447 24.6294 13.4473C24.5726 13.4194 24.5128 13.4059 24.4536 13.4059C24.3091 13.4059 24.1699 13.4855 24.1008 13.6238L23.3837 15.0576L23.0615 14.0902C22.993 13.8843 22.7691 13.7731 22.5632 13.8407C22.3567 13.9099 22.2449 14.1329 22.3138 14.3396L22.8854 16.0548L22.2004 17.4244L21.8777 16.457C21.8091 16.2508 21.5867 16.1387 21.3794 16.2081C21.1729 16.2766 21.0617 16.4997 21.1305 16.7064L21.7021 18.421L21.0635 19.6983L20.7413 18.7306C20.6728 18.5247 20.4495 18.4129 20.243 18.4817C20.0365 18.5503 19.9247 18.7733 19.9936 18.98L20.5652 20.6949L19.4508 22.9229C19.3955 22.2761 19.223 21.5395 18.8488 20.7445C18.495 19.9926 18.425 19.3855 18.642 18.941C18.9086 18.394 19.5533 18.2419 19.5575 18.2407C19.721 18.2055 19.8448 18.0709 19.8655 17.905C19.8866 17.7388 19.8006 17.5777 19.6509 17.5029C19.47 17.4127 19.3414 17.2339 19.2888 16.9998C19.2299 16.7368 19.2719 16.4419 19.4078 16.1706C19.6281 15.7309 20.0477 15.4589 20.4248 15.5076C20.546 15.5244 20.6641 15.4835 20.7503 15.4C20.8366 15.3164 20.8799 15.1977 20.8681 15.0781C20.8444 14.8446 20.8925 14.6014 21.0061 14.3745C21.2062 13.9736 21.5798 13.7061 21.9369 13.7061C21.9396 13.7061 21.9423 13.7058 21.9462 13.7061C22.1439 13.7061 22.3119 13.5591 22.3372 13.3623C22.3564 13.2126 22.4018 13.0656 22.4718 12.9259C22.7345 12.4011 23.2893 12.1246 23.6818 12.32L23.7269 12.3467C23.8249 12.4068 23.9466 12.4162 24.0557 12.381C24.1654 12.3464 24.2568 12.2596 24.3018 12.1541C24.3106 12.1337 24.3193 12.1132 24.3295 12.0925C24.4653 11.8211 24.6757 11.6104 24.9222 11.5001C25.1407 11.4021 25.361 11.397 25.5422 11.4884C25.7216 11.5783 25.8505 11.7565 25.9034 11.9906Z" fill="#1E7974" stroke="#1E7974" />
</g>
<defs>
<clipPath id="clip0_548_1221">
<rect width="32" height="32" fill="white"/>
</clipPath>
</defs>
</svg>
