<svg xmlns="http://www.w3.org/2000/svg" viewBox="0 0 64 64" fill="none">
  <path
    fill="currentColor"
    d="M4.792 57.031h19.7c.78 0 1.486.456 1.72 1.114A6.167 6.167 0 0 0 32 62.214a6.155 6.155 0 0 0 5.788-4.067c.243-.667.938-1.116 1.73-1.116h19.7a3.556 3.556 0 0 0 3.548-3.557V39.457a.961.961 0 1 0-1.923 0v14.017c0 .9-.729 1.634-1.625 1.634h-19.7c-1.598 0-3.02.958-3.54 2.388A4.23 4.23 0 0 1 32 60.29a4.24 4.24 0 0 1-3.978-2.792c-.506-1.43-1.925-2.39-3.53-2.39h-19.7a1.636 1.636 0 0 1-1.635-1.634V15.642c0-.902.733-1.635 1.635-1.635h2.463v36.666c0 .531.43.961.962.961h18.99c2.114 0 3.834 1.732 3.834 3.86 0 .531.43.961.96.962h.002a.968.968 0 0 0 .964-.968 3.851 3.851 0 0 1 3.841-3.852h18.984c.53 0 .961-.43.961-.961V14.007h2.465c.896 0 1.625.733 1.625 1.635v18.94a.961.961 0 1 0 1.923 0v-18.94a3.557 3.557 0 0 0-3.548-3.558h-2.465v-1.78a2.862 2.862 0 0 0-2.859-2.859h-1.797V5.97a3.46 3.46 0 0 0-3.456-3.455h-.545a.948.948 0 0 0-.914-.729.961.961 0 0 0-.962.962v1.457c0 .531.431.961.962.961a.948.948 0 0 0 .914-.728h.545c.845 0 1.533.687 1.533 1.532v6.331c0 3.317-2.7 6.016-6.017 6.016a6.024 6.024 0 0 1-6.017-6.016v-6.33c0-.846.687-1.533 1.532-1.533h.529a.948.948 0 0 0 .914.729c.531 0 .962-.43.962-.962V2.748a.961.961 0 0 0-.962-.962.948.948 0 0 0-.914.729h-.53a3.459 3.459 0 0 0-3.454 3.455v1.825a8.871 8.871 0 0 0-4.224 2.637 9.035 9.035 0 0 0-5.912-2.936c-1.074-2.194-3.311-3.638-5.777-3.638a6.444 6.444 0 0 0-5.762 3.594h-4.425A2.859 2.859 0 0 0 7.255 10.3v1.784H4.792a3.561 3.561 0 0 0-3.558 3.558v37.833a3.56 3.56 0 0 0 3.558 3.556Zm47.305-44.73V9.368h1.797c.517 0 .936.42.936.936v39.41H36.808a5.727 5.727 0 0 0-3.826 1.467l.065-15.636h5.113c3.837 0 6.958-3.122 6.958-6.958v-8.41c3.926-.477 6.979-3.824 6.979-7.876Zm-15.88-2.482V12.3c0 4.052 3.053 7.398 6.979 7.875v8.411a5.041 5.041 0 0 1-5.036 5.035h-5.105l.09-21.564a6.959 6.959 0 0 1 3.072-2.24Zm-5.168 2.474.17.232-.086 21.097h-4.877a5.042 5.042 0 0 1-5.037-5.035V16.683c3.12-.446 5.527-3.128 5.527-6.37 0-.269-.037-.532-.069-.795a7.114 7.114 0 0 1 4.372 2.775ZM20.303 5.78c2.409 0 4.52 1.959 4.52 4.533 0 2.492-2.028 4.52-4.563 4.52-2.476-.021-4.49-2.05-4.49-4.52 0-2.465 2.014-4.533 4.533-4.533ZM10.117 9.374h3.816a6.368 6.368 0 0 0-.085.94c0 3.184 2.348 5.843 5.449 6.349v11.924c0 3.836 3.121 6.958 6.959 6.958h4.869l-.064 15.656a5.72 5.72 0 0 0-3.854-1.49H9.177v-39.41c0-.502.431-.927.94-.927Z"
  />
</svg>
