<svg xmlns="http://www.w3.org/2000/svg" viewBox="0 0 64 64" fill="none">
  <path
    fill="currentColor"
    d="M4.267 64.002h28.801a4.267 4.267 0 0 0 4.267-4.266 1.067 1.067 0 0 0-2.134 0 2.133 2.133 0 0 1-2.133 2.133H4.267a2.133 2.133 0 0 1-2.134-2.133V4.266c0-1.177.956-2.133 2.134-2.133H5.83l2.682 4.025a5.325 5.325 0 0 0 4.439 2.376h11.583a5.322 5.322 0 0 0 4.438-2.376l2.684-4.025h1.412c1.178 0 2.133.956 2.133 2.134a1.067 1.067 0 0 0 2.134 0A4.267 4.267 0 0 0 33.068 0H4.267A4.267 4.267 0 0 0 0 4.267v55.469a4.267 4.267 0 0 0 4.267 4.267ZM27.2 4.975A3.2 3.2 0 0 1 24.534 6.4H12.951a3.193 3.193 0 0 1-2.667-1.425L8.393 2.133h20.694l-1.886 2.842Z"
  />
  <path
    fill="currentColor"
    d="M8.534 57.602c0 .59.477 1.067 1.066 1.067h18.134a1.067 1.067 0 1 0 0-2.133H9.6c-.589 0-1.066.477-1.066 1.066ZM6.4 10.667a1.067 1.067 0 1 0-2.133 0v2.134a1.067 1.067 0 0 0 2.134 0v-2.134ZM5.334 16c-.59 0-1.067.478-1.067 1.067v28.801a1.067 1.067 0 0 0 2.134 0v-28.8c0-.59-.478-1.067-1.067-1.067ZM42.97 36.655a1.067 1.067 0 0 0-1.458.39 10.718 10.718 0 0 0-.458 7.942 1.067 1.067 0 0 0 2.056-.571 8.777 8.777 0 0 1 .249-6.303c.294-.51.12-1.163-.39-1.458Z"
  />
  <path
    fill="currentColor"
    d="M36.268 56.536a3.69 3.69 0 0 0 3.627-2.924l.254-1.183c2.077 2.552 4.732 4.107 7.335 4.107a6.315 6.315 0 0 0 2.652-.576c.337.153.688.277 1.048.37 4.8 1.241 10.24-3.338 12.145-10.2 1.14-4.102.813-8.295-.875-11.218a7.137 7.137 0 0 0-4.232-3.464 33.389 33.389 0 0 0 2.71-2.092 1.727 1.727 0 0 0-.776-3.01c-2.19-.444-5.183-.878-7.011-.427a7.338 7.338 0 0 0-3.756 2.133 8.249 8.249 0 0 0-1.008-1.157 1.069 1.069 0 0 0-1.467 1.554 7.182 7.182 0 0 1 2.07 4.512 3.466 3.466 0 0 1-.79-.369 8.255 8.255 0 0 0-3.898-1.373 7.414 7.414 0 0 0-2.588-4.914l2.388-3.352a2.11 2.11 0 0 0 .072-2.381 2.133 2.133 0 0 0-2.218-.96l-.702.144 1.56-3.634a2.133 2.133 0 0 0-2.486-2.895l-1.146.287-.837-3.359a2.133 2.133 0 0 0-4.14 0l-.847 3.35-1.137-.278a2.134 2.134 0 0 0-2.485 2.908l1.56 3.62-.71-.14a2.133 2.133 0 0 0-2.213.96 2.105 2.105 0 0 0 .067 2.374l2.394 3.365a7.45 7.45 0 0 0-2.477 7.253l4.29 20.054a3.686 3.686 0 0 0 3.627 2.915ZM50.586 30.38c-.152-.61.997-1.874 3.072-2.39.455-.097.92-.141 1.386-.13a22.66 22.66 0 0 1 3.856.415 14.348 14.348 0 0 1-4.48 2.78 5.71 5.71 0 0 1-2.811.045c-.567-.161-.948-.427-1.02-.72h-.003Zm-1.517 4.8v1.087a1.067 1.067 0 1 0 2.133 0V35.18a5.669 5.669 0 0 0 2.027-.797 5.44 5.44 0 0 1 4.317-.914 5.035 5.035 0 0 1 3.057 2.51c1.408 2.438 1.658 6.018.667 9.58-1.6 5.749-5.885 9.65-9.56 8.704a4.306 4.306 0 0 1-1.053-.427 1.066 1.066 0 0 0-1.05 0 4.308 4.308 0 0 1-1.058.427c-2.812.73-5.984-1.403-8.034-5.028l-.009-.015a16.403 16.403 0 0 1-1.511-3.663c-.991-3.56-.747-7.142.666-9.579a5.035 5.035 0 0 1 3.058-2.51c.359-.092.728-.138 1.1-.138a5.982 5.982 0 0 1 3.217 1.052 5.67 5.67 0 0 0 2.033.798ZM30.872 21.845a2.127 2.127 0 0 0 2.376-2.928l-1.541-3.62 1.125.274a2.122 2.122 0 0 0 2.593-1.541l.843-3.364.842 3.356a2.122 2.122 0 0 0 2.578 1.551l1.157-.285-1.556 3.627a2.126 2.126 0 0 0 2.37 2.931l.706-.14-2.47 3.467a7.395 7.395 0 0 0-3.008-.64H35.65a7.4 7.4 0 0 0-3.009.64l-2.467-3.466.698.138Zm1.91 5.666a5.271 5.271 0 0 1 2.868-.844h1.237a5.327 5.327 0 0 1 5.285 4.741 7.116 7.116 0 0 0-4.355 3.503c-1.688 2.923-2.015 7.116-.875 11.218.37 1.33.891 2.614 1.552 3.826l-.687 3.2a1.574 1.574 0 0 1-3.077.007l-4.29-20.045a5.314 5.314 0 0 1 2.342-5.607Z"
  />
</svg>
