<svg
    xmlns="http://www.w3.org/2000/svg"
    viewBox="0 0 64 64"
    fill="none"
  >
    <g
      stroke="currentColor"
      strokeLinecap="round"
      strokeLinejoin="round"
      strokeMiterlimit="10"      
      strokeWidth="2.5"
      clipPath="url(#a)"
    >
      <path d="M40.684 8.164c2.15 3.297 3.455 7.36 3.455 11.023v5.772M2.886 25.407v-6.22C2.886 14.61 5.252 8.6 8.86 5.062 15.217-.88 21.854 1.175 23.512 1.746c1.634-.562 8.1-2.566 14.37 3.058" />
      <path d="M41.783 23.65c2.28.382 4.04 2.859 4.04 5.856 0 3.263-2.085 5.909-4.657 5.909-.303 0-.602-.038-.89-.109M5.276 23.725c-2.11.563-3.693 2.938-3.693 5.781 0 3.263 2.085 5.909 4.656 5.909.304 0 .602-.038.89-.109" />
      <path d="M7.129 35.306c2.819 6.363 9.179 10.8 16.574 10.8 7.395 0 13.755-4.437 16.573-10.8M5.276 23.725l1.703 3.831c.439.988 1.914.674 1.914-.406V22.4c0-.706.583-1.274 1.29-1.249 5.33.19 11.773-1.537 15.548-5.66a1.245 1.245 0 0 1 1.915.09c2.103 2.818 5.955 5.085 9.564 6.081.544.152.923.642.923 1.207V27.15c0 1.08 1.475 1.394 1.913.406l1.737-3.906M15.707 29.223v1.5M31.32 29.223v1.5M21.455 30.679c.5.574 1.237.937 2.058.937.822 0 1.558-.363 2.058-.937M23.703 63.063h19.012c.44 0 .861-.076 1.25-.213M37.964 44.857a23.134 23.134 0 0 1 3.814 3.783v.001M23.702 63.062H4.69c-2.358 0-4.135-2.15-3.681-4.465a23.126 23.126 0 0 1 8.432-13.74M43.438 45.708v-3.895a3.75 3.75 0 0 1 3.75-3.75h12.124a3.75 3.75 0 0 1 3.75 3.75v17.5a3.75 3.75 0 0 1-3.75 3.75H47.724M51.938 46.813h7.374M57.456 54.313h1.857M55.845 50.563h3.468M59.313 43.063H47.187" />
      <path d="M42.535 49.742a3.177 3.177 0 0 1-.241-.257c-.971-1.156-.871-2.648-.735-3.405a.628.628 0 0 1 .616-.519c.769-.002 2.256.158 3.228 1.315.848 1.011.88 2.276.783 3.085M47.856 47.101a8.413 8.413 0 0 0-1.417 2.89M25.89 49.746a21.518 21.518 0 0 0 4.376-.897M17.139 48.849c1.404.444 2.867.748 4.376.897" />
      <path d="M39.863 51.927c1.058-1.87 3.08-2.987 6.2-1.997.263.082.546.082.808 0 4.902-1.555 7.097 2.087 7.097 5.689 0 3.292-2.654 7.15-6.04 7.435a2.943 2.943 0 0 1-1.05-.115 1.409 1.409 0 0 0-.82 0c-.36.108-.754.14-1.052.115-3.18-.268-5.717-3.692-6.01-6.837M32.616 43.761l-8.913 19.301 10.492-6.36c.419-.255.65-.73.593-1.216l-.405-3.42c-.072-.602.3-1.167.878-1.344l1.484-.45c.493-.148.844-.585.884-1.098l.337-4.347a2.506 2.506 0 0 0-1.153-2.305c-.43-.275-.87-.537-1.318-.785M14.789 43.761l8.914 19.301-10.493-6.36a1.252 1.252 0 0 1-.592-1.216l.405-3.42a1.251 1.251 0 0 0-.88-1.344l-1.483-.45a1.249 1.249 0 0 1-.884-1.098l-.337-4.347a2.506 2.506 0 0 1 1.154-2.305c.43-.275.87-.537 1.317-.785" />
    </g>
  </svg>


