<svg width="12" height="12" viewBox="0 0 12 12" fill="none" xmlns="http://www.w3.org/2000/svg">
<path d="M5 4C5 4.94281 5 5.4142 4.70711 5.7071C4.41422 6 3.94281 6 3 6C2.05719 6 1.58578 6 1.29289 5.7071C1 5.4142 1 4.94281 1 4C1 3.05719 1 2.58579 1.29289 2.2929C1.58578 2 2.05719 2 3 2C3.94281 2 4.41422 2 4.70711 2.2929C5 2.58579 5 3.05719 5 4Z" stroke="#C9961A"/>
<path d="M5 3.5V5.74105C5 7.72735 3.74214 9.41185 2 10" stroke="#C9961A" stroke-linecap="round"/>
<path d="M11 4C11 4.94281 11 5.4142 10.7071 5.7071C10.4142 6 9.9428 6 9 6C8.0572 6 7.5858 6 7.2929 5.7071C7 5.4142 7 4.94281 7 4C7 3.05719 7 2.58579 7.2929 2.2929C7.5858 2 8.0572 2 9 2C9.9428 2 10.4142 2 10.7071 2.2929C11 2.58579 11 3.05719 11 4Z" stroke="#C9961A"/>
<path d="M11 3.5V5.74105C11 7.72735 9.74215 9.41185 8 10" stroke="#C9961A" stroke-linecap="round"/>
</svg>
