<svg
  width="16"
  height="17"
  viewBox="0 0 16 17"
  fill="none"
  xmlns="http://www.w3.org/2000/svg"
>
  <g clip-path="url(#clip0_241_1003)">
    <path
      d="M10.1111 1.1665L10.5097 1.91169C10.7792 2.41548 10.914 2.66738 10.8249 2.77526C10.7358 2.88314 10.4423 2.79601 9.85536 2.62176C9.26856 2.44754 8.64556 2.35381 7.99996 2.35381C4.50215 2.35381 1.66663 5.10548 1.66663 8.49987C1.66663 9.61927 1.97504 10.6689 2.51391 11.5729M5.88885 15.8332L5.4902 15.088C5.22068 14.5842 5.08592 14.3323 5.17503 14.2244C5.26414 14.1165 5.55762 14.2037 6.14455 14.3779C6.73136 14.5521 7.35436 14.6459 7.99996 14.6459C11.4978 14.6459 14.3333 11.8942 14.3333 8.49987C14.3333 7.3804 14.0249 6.33082 13.486 5.42682"
      stroke="#FFA400"
      stroke-linecap="round"
      stroke-linejoin="round"
    />
  </g>
  <defs>
    <clipPath id="clip0_241_1003">
      <rect width="16" height="16" fill="white" transform="translate(0 0.5)" />
    </clipPath>
  </defs>
</svg>
