<svg width="24" height="24" viewBox="0 0 24 24" fill="none" xmlns="http://www.w3.org/2000/svg">
<path d="M9 4.5C5.50442 5.70104 3 8.94175 3 12.7511C3 13.9579 3.25134 15.1076 3.70591 16.1534M15 4.5C18.4956 5.70104 21 8.94175 21 12.7511C21 13.7736 20.8195 14.7552 20.4879 15.6674M16.5 20.3296C15.1762 21.074 13.6393 21.5 12 21.5C10.3607 21.5 8.82378 21.074 7.5 20.3296" stroke="#C9961A" stroke-width="1.5"/>
<path d="M15 5C15 6.65685 13.6569 8 12 8C10.3431 8 9 6.65685 9 5C9 3.34315 10.3431 2 12 2C13.6569 2 15 3.34315 15 5Z" stroke="#C9961A" stroke-width="1.5"/>
<path d="M5 22C6.65685 22 8 20.6569 8 19C8 17.3431 6.65685 16 5 16C3.34315 16 2 17.3431 2 19C2 20.6569 3.34315 22 5 22Z" stroke="#C9961A" stroke-width="1.5"/>
<path d="M19 22C20.6569 22 22 20.6569 22 19C22 17.3431 20.6569 16 19 16C17.3431 16 16 17.3431 16 19C16 20.6569 17.3431 22 19 22Z" stroke="#C9961A" stroke-width="1.5"/>
</svg>
