<svg width="24" height="24" viewBox="0 0 24 24" fill="none" xmlns="http://www.w3.org/2000/svg">
<path d="M7.99414 5.51768C7.99414 7.44857 9.78763 9.01387 12 9.01387C14.2124 9.01387 16.0058 7.44857 16.0058 5.51768C16.0058 3.58678 14.2124 2.02148 12 2.02148C9.78763 2.02148 7.99414 3.58678 7.99414 5.51768Z" stroke="#1E7974"/>
<path d="M4.51026 12C3.66411 12.0171 2.86428 12.2076 2.59603 12.4306C2.28753 12.8965 2.98897 13.935 3.09659 14.3721L2.74329 17.2345L2.50384 19.7475C2.35862 22.4163 6.3772 23.0705 6.49172 19.7475L5.87926 14.427C6.14559 13.6301 6.78891 12.5757 6.31849 12.3293C5.83405 12.0755 5.15856 11.9868 4.51026 12ZM4.51026 12C4.46247 10.8023 4.3938 8.29961 4.78373 7.50781L4.51026 12Z" fill="#1E7974" fill-opacity="0.2"/>
<path d="M4.51026 12C3.66411 12.0171 2.86428 12.2076 2.59603 12.4306C2.28753 12.8965 2.98897 13.935 3.09659 14.3721L2.74329 17.2345L2.50384 19.7475C2.35862 22.4163 6.3772 23.0705 6.49172 19.7475L5.87926 14.427C6.14559 13.6301 6.78891 12.5757 6.31849 12.3293C5.83405 12.0755 5.15856 11.9868 4.51026 12ZM4.51026 12C4.46247 10.8023 4.3938 8.29961 4.78373 7.50781" stroke="#1E7974" stroke-linecap="round" stroke-linejoin="round"/>
<path d="M19.4898 12C20.336 12.0171 21.1358 12.2076 21.4041 12.4306C21.7126 12.8966 21.0111 13.935 20.9035 14.3721L21.2568 17.2345L21.4963 19.7476C21.6415 22.4163 17.6229 23.0705 17.5084 19.7476L18.1208 14.427C17.8545 13.6301 17.2112 12.5758 17.6816 12.3293C18.1661 12.0755 18.8415 11.9869 19.4898 12ZM19.4898 12C19.5292 11.014 19.588 9.27147 19.3856 8.13918C19.3089 7.70988 19.1797 7.29041 19.0347 6.87911C17.5294 2.60858 10.8115 -0.61376 6.01123 4.98875" fill="#1E7974" fill-opacity="0.2"/>
<path d="M19.4898 12C20.336 12.0171 21.1358 12.2076 21.4041 12.4306C21.7126 12.8966 21.0111 13.935 20.9035 14.3721L21.2568 17.2345L21.4963 19.7476C21.6415 22.4163 17.6229 23.0705 17.5084 19.7476L18.1208 14.427C17.8545 13.6301 17.2112 12.5758 17.6816 12.3293C18.1661 12.0755 18.8415 11.9869 19.4898 12ZM19.4898 12C19.5292 11.014 19.588 9.27147 19.3856 8.13918C19.3089 7.70988 19.1797 7.29041 19.0347 6.87911C17.5294 2.60858 10.8115 -0.61376 6.01123 4.98875" stroke="#1E7974" stroke-linecap="round" stroke-linejoin="round"/>
</svg>
