<svg xmlns="http://www.w3.org/2000/svg" viewBox="0 0 64 64" fill="none">
  <path
    fill="currentColor"
    d="M62.13 22.567V4.075h.534a1.069 1.069 0 0 0 0-2.137h-3.207a1.069 1.069 0 0 0 0 2.137h.535v16.451c-1.567-1.078-3.335-1.62-5.345-1.62-.59 0-1.069.479-1.069 1.07v21.11a6.42 6.42 0 0 1-6.413 6.413H16.702a6.42 6.42 0 0 1-6.414-6.413v-21.11a6.42 6.42 0 0 1 6.413-6.414h30.464c1.483 0 2.876.491 4.027 1.421a1.07 1.07 0 0 0 1.343-1.663 8.572 8.572 0 0 0-5.37-1.896H16.702c-4.373 0-7.987 3.3-8.49 7.538a9.163 9.163 0 0 0-4.35 1.667V4.075h.535a1.069 1.069 0 0 0 0-2.137H1.19a1.069 1.069 0 0 0 0 2.137h.535v18.691A9.166 9.166 0 0 0 0 28.126v5.077a9.15 9.15 0 0 0 1.765 5.426 1.069 1.069 0 1 0 1.728-1.26 7.027 7.027 0 0 1-1.355-4.166v-5.078c0-3.541 2.613-6.483 6.012-7v19.96c0 4.716 3.836 8.552 8.551 8.552h30.464c4.922 0 8.551-4.142 8.551-8.284V21.106c3.465.459 6.146 3.432 6.146 7.02v5.076c0 1.934-.8 3.792-2.198 5.125a1.068 1.068 0 0 0-.474.888v10.186c0 4.182-3.402 7.585-7.584 7.585h-3.059a3.747 3.747 0 0 0-3.653-2.94h-4.276a3.745 3.745 0 0 0-3.741 3.741v.535a3.745 3.745 0 0 0 3.741 3.74h4.276a3.747 3.747 0 0 0 3.653-2.939h3.059c5.36 0 9.722-4.36 9.722-9.722v-9.709A9.244 9.244 0 0 0 64 33.202v-5.076a9.171 9.171 0 0 0-1.87-5.559ZM46.496 58.322c0 .884-.72 1.603-1.603 1.603h-4.276c-.884 0-1.603-.72-1.603-1.603v-.535c0-.884.719-1.603 1.603-1.603h4.276c.884 0 1.603.72 1.603 1.603v.535ZM19.64 25.186c0 2.399 2.313 4.14 4.624 3.463a1.07 1.07 0 0 1 .6 2.052c-3.69 1.08-7.362-1.704-7.362-5.515a5.752 5.752 0 0 1 5.745-5.745 5.752 5.752 0 0 1 5.746 5.745 1.069 1.069 0 0 1-2.138 0 3.612 3.612 0 0 0-3.608-3.608 3.612 3.612 0 0 0-3.607 3.608Zm20.977 5.745c-3.659 0-6.423-3.406-5.603-7.02a1.07 1.07 0 0 1 2.085.473c-.515 2.27 1.22 4.41 3.518 4.41a3.612 3.612 0 0 0 3.607-3.608c0-2.405-2.33-4.156-4.654-3.454a1.07 1.07 0 0 1-.618-2.046c3.688-1.115 7.41 1.657 7.41 5.5a5.752 5.752 0 0 1-5.745 5.745Zm-8.671 13.361c4.503 0 8.219-4.119 7.417-6.607-.817-2.536-5.888-2.779-7.422-2.793-1.526-.015-6.575.136-7.433 2.64-.849 2.478 2.838 6.76 7.438 6.76Zm-5.416-6.066c.123-.359 1.791-1.197 5.198-1.197 3.45 0 5.451.85 5.6 1.312.23.712-1.923 3.814-5.394 3.814-3.466-.007-5.656-3.196-5.404-3.93Z"
  />
</svg>
