<svg xmlns="http://www.w3.org/2000/svg" viewBox="0 0 12 12" fill="none">
  <path
    stroke="currentColor"
    strokeLinecap="round"
    strokeLinejoin="round"
    d="m5.993 7.704 1.62 1.843c.6.682.901 1.024 1.215.94.315-.082.422-.532.638-1.43l1.196-4.984c.331-1.384.497-2.076.128-2.417-.368-.341-1.008-.087-2.287.42L2.569 4.432c-1.023.406-1.534.61-1.566.958a.588.588 0 0 0 0 .108c.03.349.542.554 1.563.963.463.186.695.278.86.456.02.02.037.04.054.062.153.19.219.44.349.938l.244.934c.127.485.19.727.357.76.166.034.311-.168.6-.57l.963-1.337Zm0 0-.16-.165c-.18-.189-.27-.283-.27-.4 0-.117.09-.212.27-.4L7.62 4.877"
  />
</svg>
