<svg width="88" height="88" viewBox="0 0 88 88" fill="none" xmlns="http://www.w3.org/2000/svg">
<path d="M69.6664 38.4999V36.6664C69.6664 22.8387 69.6661 15.9247 65.3706 11.6289C61.0747 7.33325 54.1608 7.33325 40.3331 7.33325C26.5057 7.33325 19.5917 7.33347 15.296 11.6291C11.0003 15.9248 11.0003 22.8386 11.0001 36.6661L11 53.1666C10.9999 65.2204 10.9999 71.2477 14.3289 75.3041C14.9384 76.047 15.6195 76.7279 16.3622 77.3376C20.4188 80.6666 26.4458 80.6666 38.4998 80.6666" stroke="#B1B7B6"  stroke-linecap="round" stroke-linejoin="round"/>
<path d="M25.667 25.6667H55.0003M25.667 40.3334H40.3337" stroke="#B1B7B6"  stroke-linecap="round" stroke-linejoin="round"/>
<path d="M66 67.8334L60.5 65.8168V56.8334M44 64.1667C44 73.2795 51.3872 80.6667 60.5 80.6667C69.6128 80.6667 77 73.2795 77 64.1667C77 55.054 69.6128 47.6667 60.5 47.6667C51.3872 47.6667 44 55.054 44 64.1667Z" stroke="#B1B7B6"  stroke-linecap="round" stroke-linejoin="round"/>
</svg>
