<svg width="25" height="24" viewBox="0 0 25 24" fill="none" xmlns="http://www.w3.org/2000/svg">
<path d="M17.25 13.2308C17.25 13.2308 16.3409 12.7693 15.4318 12.7693C14.0682 12.7693 12.25 14.6154 12.25 17.3846C12.25 20.1537 14.7396 22 17.25 22C19.7604 22 22.25 20.1537 22.25 17.3846C22.25 14.6154 20.4318 12.7693 19.0682 12.7693C18.1591 12.7693 17.25 13.2308 17.25 13.2308ZM17.25 13.2308C17.25 11.8462 18.1591 10 19.9773 10" stroke="#8C9190" stroke-linecap="round" stroke-linejoin="round"/>
<path d="M10.905 5C11.8012 5 12.5278 4.32843 12.5278 3.5C12.5278 2.67157 11.8012 2 10.905 2H5.49561C4.59936 2 3.8728 2.67157 3.8728 3.5C3.8728 4.32843 4.59936 5 5.49561 5M11.4193 4.92311C12.3747 6.68943 13.1595 8.28337 13.6388 10C13.6779 10.1401 13.715 10.281 13.75 10.4229M10.678 22H6.57748C2.99721 22 2.25 21.3093 2.25 18V13.7771C2.25 10.3773 3.34757 7.88562 4.95467 4.91465" stroke="#8C9190" stroke-linecap="round" stroke-linejoin="round"/>
</svg>
