<svg
    xmlns="http://www.w3.org/2000/svg"
    viewBox="0 0 64 64"
    fill="none"
  >
    <g
      stroke="currentColor"
      strokeLinecap="round"
      strokeLinejoin="round"
      strokeMiterlimit="10"
      strokeWidth="2.5"
      clipPath="url(#a)"
    >
      <path d="M9.395 60.788c-2.675-.759-4.227-1.661-4.227-2.63 0-1.239 2.536-2.37 6.715-3.23M52.008 54.928c4.167.86 6.696 1.992 6.696 3.23 0 2.695-11.98 4.88-26.756 4.88-6.936 0-13.255-.481-18.009-1.27" />
      <path d="M32 57.97c11.11 0 20.117-1.638 20.117-3.66 0-2.02-9.006-3.658-20.117-3.658-11.11 0-20.117 1.638-20.117 3.659 0 2.02 9.007 3.659 20.117 3.659ZM41.351 42.944 36.968 23.01h-9.936L22.65 42.944a2.792 2.792 0 0 0 5.422 1.33l3.045-11.238c.244-.902 1.524-.902 1.768 0l3.045 11.238a2.792 2.792 0 0 0 5.422-1.33Z" />
      <path d="M41.418 9.898H14.405a2.22 2.22 0 0 0 0 4.439h11.648c.523 0 .947.424.947.947v7.727h10v-7.727c0-.523.424-.947.947-.947h11.648a2.22 2.22 0 0 0 0-4.439h-3.433M32 9.898a4.468 4.468 0 1 0 0-8.936 4.468 4.468 0 0 0 0 8.936Z" />
      <path d="M37.271 18.798c12.742.405 22.365 2.252 22.365 4.47 0 2.513-12.373 4.552-27.636 4.552S4.364 25.78 4.364 23.267c0-2.233 9.76-4.09 22.636-4.478" />
      <path d="m45.742 24.517 2.854 2.485-2.485 2.854M15.791 24.27l2.361 2.958-2.957 2.361" />
    </g>
  </svg>
