<svg xmlns="http://www.w3.org/2000/svg" viewBox="0 0 12 12" fill="none">
  <g stroke="currentColor">
    <path
      strokeLinejoin="round"
      d="M6 11a5 5 0 1 0-4.608-3.056c.14.33.21.495.218.62.008.125-.028.262-.102.537L1 11l1.9-.508c.274-.074.411-.11.536-.102.125.009.29.079.62.218A4.986 4.986 0 0 0 6 11Z"
    />
    <path
      d="m4.294 6.189.436-.541c.183-.228.41-.44.428-.744.004-.077-.05-.42-.158-1.11-.042-.27-.295-.294-.513-.294-.285 0-.428 0-.57.065a.815.815 0 0 0-.402.504c-.032.152-.009.257.039.467A5.18 5.18 0 0 0 4.96 7.04a5.179 5.179 0 0 0 2.504 1.406c.21.048.315.071.467.04a.815.815 0 0 0 .504-.404c.065-.141.065-.284.065-.569 0-.218-.024-.471-.295-.513-.688-.108-1.032-.162-1.11-.158-.303.018-.515.245-.743.428l-.54.436"
    />
  </g>
</svg>
